<?xml version="1.0" encoding="UTF-8" standalone="no"?>
<!-- Uploaded to: SVG Repo, www.svgrepo.com, Generator: SVG Repo Mixer Tools -->

<svg
   width="800"
   height="800"
   viewBox="0 0 24 24"
   fill="none"
   version="1.1"
   id="svg1"
   xmlns="http://www.w3.org/2000/svg"
   xmlns:svg="http://www.w3.org/2000/svg">
  <defs
     id="defs1" />
  <path
     d="m 11.9998,9.00023 v 3.99997 m 0,4 h 0.01 M 10.6151,3.89195 2.39019,18.0986 c -0.45621,0.788 -0.68431,1.182 -0.6506,1.5053 0.02941,0.2821 0.17718,0.5384 0.40654,0.7051 0.26295,0.1912 0.71822,0.1912 1.62874,0.1912 H 20.2246 c 0.9106,0 1.3658,0 1.6288,-0.1912 0.2293,-0.1667 0.3771,-0.423 0.4065,-0.7051 0.0337,-0.3233 -0.1944,-0.7173 -0.6506,-1.5053 L 13.3844,3.89195 c -0.4545,-0.78516 -0.6818,-1.17774 -0.9783,-1.3096 -0.2587,-0.11501 -0.554,-0.11501 -0.8126,0 -0.2966,0.13186 -0.5239,0.52444 -0.9784,1.3096 z"
     stroke="#000000"
     stroke-width="2"
     stroke-linecap="round"
     stroke-linejoin="round"
     id="path1"
     style="fill:#ffffff;fill-opacity:1" />
</svg>
