<?xml version="1.0" encoding="UTF-8" standalone="no"?>
<!-- Uploaded to: SVG Repo, www.svgrepo.com, Generator: SVG Repo Mixer Tools -->

<svg
   width="128"
   height="128"
   version="1.1"
   id="svg1"
   xmlns="http://www.w3.org/2000/svg"
   xmlns:svg="http://www.w3.org/2000/svg"
   xmlns:rdf="http://www.w3.org/1999/02/22-rdf-syntax-ns#"
   xmlns:cc="http://creativecommons.org/ns#"
   xmlns:dc="http://purl.org/dc/elements/1.1/">
  <defs
     id="defs1" />
  <title
     id="title1">Reboot Icon</title>
  <desc
     id="desc1">This is shape (source) for Clarity vector icon theme for gtk</desc>
  <metadata
     id="metadata1">
    <rdf:RDF>
      <cc:Work
         rdf:about="">
        <dc:title>Reboot Icon</dc:title>
        <dc:description>This is shape (source) for Clarity vector icon theme for gtk</dc:description>
        <dc:creator>
          <cc:Agent>
            <dc:title>Jakub Jankiewicz</dc:title>
          </cc:Agent>
        </dc:creator>
        <dc:rights>
          <cc:Agent>
            <dc:title>Jakub Jankiewicz</dc:title>
          </cc:Agent>
        </dc:rights>
        <dc:date>2010</dc:date>
        <dc:format>image/svg+xml</dc:format>
        <dc:type
           rdf:resource="http://purl.org/dc/dcmitype/StillImage" />
        <cc:license
           rdf:resource="http://creativecommons.org/licenses/by-sa/3.0/" />
      </cc:Work>
    </rdf:RDF>
  </metadata>
  <path
     d="m 60.90625,7.984375 c -28.67767,0 -51.9375,23.259829 -51.9375,51.9375 0,16.676866 7.86714,31.512857 20.09375,41.000005 l -10.96875,10.65625 36,0.3125 0.75,-36.000005 -11.375,11.03125 C 34.61486,81.195848 28.75,71.254649 28.75,59.921875 c 0,-17.763035 14.39321,-32.15625 32.15625,-32.15625 0.77958,0 1.54683,0.03923 2.3125,0.09375 v -19.8125 c -0.76301,-0.03329 -1.5413,-0.0625 -2.3125,-0.0625 z m 13,8.125 -0.75,36 11.375,-11.03125 c 8.85389,5.726027 14.71875,15.667226 14.71875,27 0,17.763035 -14.39321,32.156255 -32.15625,32.156255 -0.779582,0 -1.546832,-0.0392 -2.3125,-0.0937 v 19.8125 c 0.763014,0.0333 1.541303,0.0625 2.3125,0.0625 28.67767,0 51.9375,-23.259834 51.9375,-51.937505 0,-16.676866 -7.86714,-31.512857 -20.09375,-41 l 10.96875,-10.65625 -36,-0.3125 z"
     id="path1"
     style="fill:#ffffff;fill-opacity:1;stroke:#000000;stroke-width:4;stroke-linejoin:round;stroke-dasharray:none;stroke-opacity:1" />
</svg>
