<svg width="128" height="128" xmlns="http://www.w3.org/2000/svg"><path d="M60.906 7.984C32.23 7.984 8.97 31.244 8.97 59.922c0 16.677 7.867 31.513 20.093 41l-10.968 10.656 36 .313.75-36-11.375 11.03c-8.854-5.725-14.719-15.666-14.719-27 0-17.762 14.393-32.155 32.156-32.155.78 0 1.547.039 2.313.093V8.047a53.257 53.257 0 00-2.313-.063zm13 8.125l-.75 36 11.375-11.03c8.854 5.725 14.719 15.666 14.719 27 0 17.762-14.393 32.155-32.156 32.155-.78 0-1.547-.039-2.313-.093v19.812c.763.033 1.542.063 2.313.063 28.677 0 51.937-23.26 51.937-51.938 0-16.677-7.867-31.513-20.094-41l10.97-10.656-36-.313z" fill="#fff" stroke="#000" stroke-width="4" stroke-linejoin="round"/></svg>