<svg width="800" height="800" viewBox="0 -5 32 32" fill="none" xmlns="http://www.w3.org/2000/svg"><path fill-rule="evenodd" clip-rule="evenodd" d="M8.984.881a14.806 14.806 0 00-2.88 4.604A14.85 14.85 0 005.051 11c0 1.905.35 3.743 1.051 5.515a14.807 14.807 0 002.881 4.604l1.768-1.768a12.338 12.338 0 01-2.327-3.755A12.375 12.375 0 017.548 11c0-1.588.293-3.12.877-4.596a12.337 12.337 0 012.327-3.755zm3.537 3.537a9.87 9.87 0 00-1.774 2.906A9.9 9.9 0 0010.045 11a9.9 9.9 0 00.702 3.676 9.87 9.87 0 001.774 2.906l1.77-1.77a7.404 7.404 0 01-1.223-2.055A7.426 7.426 0 0112.542 11c0-.953.176-1.872.526-2.757.3-.756.707-1.441 1.223-2.055zM23.016 21.119c1.24-1.351 2.2-2.886 2.88-4.604A14.85 14.85 0 0026.949 11c0-1.905-.35-3.743-1.051-5.515A14.807 14.807 0 0023.016.881L21.248 2.65a12.338 12.338 0 012.327 3.755c.584 1.477.877 3.008.877 4.596s-.293 3.12-.877 4.596a12.337 12.337 0 01-2.327 3.755zm-3.537-3.537a9.87 9.87 0 001.774-2.906A9.9 9.9 0 0021.955 11a9.9 9.9 0 00-.702-3.676 9.87 9.87 0 00-1.774-2.906l-1.77 1.77a7.404 7.404 0 011.223 2.055c.35.885.526 1.804.526 2.757 0 .953-.176 1.872-.526 2.757-.3.756-.707 1.441-1.223 2.055z" fill="#fff" stroke="#000" stroke-width=".632"/></svg>