<?xml version="1.0" encoding="UTF-8" standalone="no"?>
<!-- Uploaded to: SVG Repo, www.svgrepo.com, Generator: SVG Repo Mixer Tools -->

<svg
   width="800"
   height="800"
   viewBox="0 -5 32 32"
   fill="none"
   version="1.1"
   id="svg2"
   xmlns="http://www.w3.org/2000/svg"
   xmlns:svg="http://www.w3.org/2000/svg">
  <path
     fill-rule="evenodd"
     clip-rule="evenodd"
     d="M 8.984317,0.88134542 C 7.7440801,2.2321234 6.7837871,3.7667434 6.1034341,5.4853344 c -0.701261,1.771334 -1.051891,3.609514 -1.051891,5.5146676 0,1.905089 0.35063,3.743333 1.051891,5.514692 0.680353,1.718534 1.640646,3.253192 2.8808829,4.603963 l 1.767609,-1.767621 C 9.754075,18.245199 8.978454,16.993383 8.4250781,15.595585 c -0.584391,-1.476128 -0.876579,-3.007966 -0.876579,-4.595583 0,-1.5876176 0.292188,-3.1194556 0.876579,-4.5956406 0.5533699,-1.397766 1.3289899,-2.64957 2.3268539,-3.75535 z m 3.536248,3.53621798 c -0.756179,0.860338 -1.347482,1.828947 -1.773844,2.905951 -0.467507,1.18091 -0.701261,2.406406 -0.701261,3.6764876 0,1.270081 0.233754,2.495576 0.701261,3.676487 0.426362,1.076947 1.017665,2.0456 1.773844,2.905926 l 1.770702,-1.770664 c -0.515988,-0.613639 -0.923644,-1.298426 -1.222904,-2.054416 -0.350611,-0.885698 -0.52598,-1.804788 -0.52598,-2.757333 0,-0.952546 0.175369,-1.8716986 0.52598,-2.7573346 0.29926,-0.755926 0.706916,-1.44077 1.222904,-2.054466 z"
     fill="url(#paint0_radial_103_1572)"
     id="path1"
     style="fill:#ffffff;fill-opacity:1;stroke:#000000;stroke-width:0.632416;stroke-opacity:1" />
  <defs
     id="defs2" />
  <path
     fill-rule="evenodd"
     clip-rule="evenodd"
     d="m 23.015683,21.118655 c 1.240236,-1.350778 2.200529,-2.885398 2.880882,-4.603989 0.701261,-1.771334 1.051891,-3.609514 1.051891,-5.514667 0,-1.9050915 -0.35063,-3.7433355 -1.051891,-5.5146945 -0.680353,-1.718534 -1.640646,-3.253192 -2.880882,-4.60396298 L 21.248074,2.6489625 c 0.997851,1.105837 1.773472,2.357654 2.326847,3.755451 0.584391,1.476128 0.876579,3.007966 0.876579,4.5955855 0,1.587616 -0.292188,3.119455 -0.876579,4.59564 -0.553369,1.397766 -1.328989,2.64957 -2.326853,3.75535 z m -3.536249,-3.536218 c 0.75618,-0.860338 1.347483,-1.828947 1.773845,-2.905951 0.467507,-1.18091 0.701261,-2.406407 0.701261,-3.676487 0,-1.2700825 -0.233754,-2.4955785 -0.701261,-3.6764895 -0.426362,-1.076947 -1.017665,-2.0456 -1.773845,-2.905926 l -1.770701,1.770664 c 0.515988,0.613639 0.923643,1.298426 1.222903,2.054416 0.350611,0.885698 0.52598,1.8047895 0.52598,2.7573355 0,0.952545 -0.175369,1.871698 -0.52598,2.757334 -0.29926,0.755926 -0.706915,1.44077 -1.222903,2.054466 z"
     fill="url(#paint0_radial_103_1572)"
     id="path2"
     style="fill:#ffffff;fill-opacity:1;stroke:#000000;stroke-width:0.632416;stroke-opacity:1" />
</svg>
