<svg width="800" height="800" viewBox="0 0 24 24" fill="none" xmlns="http://www.w3.org/2000/svg"><path fill-rule="evenodd" clip-rule="evenodd" d="M21 11.901V6.43c0-2.269 0-3.404-.707-4.024-.707-.621-1.788-.434-3.95-.061l-1.055.182c-1.64.283-2.46.425-3.288.425-.828 0-1.648-.142-3.288-.425l-1.054-.182c-2.162-.373-3.244-.56-3.95.06C3 3.026 3 4.16 3 6.43v5.472c0 5.69 4.239 8.45 6.899 9.622.721.318 1.082.477 2.101.477 1.02 0 1.38-.159 2.101-.477C16.761 20.351 21 17.59 21 11.901zM7.17 9.141c.124-.257.587-.607 1.33-.607.743 0 1.206.35 1.33.606a.738.738 0 001.005.348.79.79 0 00.336-1.043C10.712 7.494 9.603 6.98 8.5 6.98c-1.103 0-2.212.515-2.67 1.466a.79.79 0 00.335 1.043.738.738 0 001.006-.348zm8.33-.607c-.743 0-1.206.35-1.33.606a.738.738 0 01-1.005.348.79.79 0 01-.336-1.043c.459-.951 1.567-1.466 2.671-1.466 1.103 0 2.212.515 2.67 1.466a.79.79 0 01-.335 1.043.738.738 0 01-1.006-.348c-.123-.256-.586-.606-1.329-.606zm-7.511 6.008a.804.804 0 01-.032-1.104.748.748 0 011.067-.022l.102.079c.101.071.268.176.507.285.475.217 1.247.453 2.367.453 1.12 0 1.892-.236 2.367-.453.239-.109.406-.214.506-.285a1.523 1.523 0 00.117-.091l.001-.001a.731.731 0 011.052.035.797.797 0 01-.026 1.098l-.001.002h-.001l-.004.004-.007.007-.02.019a3.027 3.027 0 01-.262.209 4.57 4.57 0 01-.751.426c-.663.302-1.64.584-2.971.584-1.33 0-2.308-.282-2.97-.584a4.569 4.569 0 01-.752-.427 3.018 3.018 0 01-.288-.233z" fill="#fff" stroke="#000"/></svg>