<svg width="800" height="800" viewBox="0 -5 32 32" fill="none" xmlns="http://www.w3.org/2000/svg"><path fill-rule="evenodd" clip-rule="evenodd" d="M30.514 6.659a21.238 21.238 0 00-6.604-4.133A21.301 21.301 0 0016 1.017c-2.733 0-5.37.503-7.91 1.51a21.24 21.24 0 00-6.604 4.132L4.02 9.194a17.698 17.698 0 015.387-3.338A17.751 17.751 0 0116 4.6c2.277 0 4.475.42 6.592 1.257 2.005.794 3.8 1.907 5.387 3.338zm-5.072 5.072a14.158 14.158 0 00-4.168-2.544A14.201 14.201 0 0016 8.18c-1.822 0-3.58.335-5.274 1.006a14.159 14.159 0 00-4.168 2.544l2.54 2.54a10.62 10.62 0 012.947-1.754A10.652 10.652 0 0116 11.762c1.366 0 2.685.252 3.955.755a10.623 10.623 0 012.947 1.754zM11.98 17.153l3.554 3.554a.66.66 0 00.933 0l3.553-3.554a5.314 5.314 0 00-1.816-1.336A5.314 5.314 0 0016 15.344c-.769 0-1.503.158-2.204.473-.701.315-1.306.76-1.816 1.336z" fill="#fff" stroke="#000" stroke-width=".907"/><path fill="#fff" stroke="#000" stroke-width=".907" d="M21.494-2.39L24.85-.452 10.507 24.39 7.15 22.453z"/></svg>