<?xml version="1.0" encoding="UTF-8" standalone="no"?>
<!-- Uploaded to: SVG Repo, www.svgrepo.com, Generator: SVG Repo Mixer Tools -->

<svg
   width="800"
   height="800"
   viewBox="0 -5 32 32"
   fill="none"
   version="1.1"
   id="svg2"
   sodipodi:docname="wifi.svg"
   inkscape:export-filename="wifi.svg"
   inkscape:export-xdpi="96"
   inkscape:export-ydpi="96"
   xmlns:inkscape="http://www.inkscape.org/namespaces/inkscape"
   xmlns:sodipodi="http://sodipodi.sourceforge.net/DTD/sodipodi-0.dtd"
   xmlns="http://www.w3.org/2000/svg"
   xmlns:svg="http://www.w3.org/2000/svg">
  <sodipodi:namedview
     id="namedview1"
     pagecolor="#ffffff"
     bordercolor="#111111"
     borderopacity="1"
     inkscape:showpageshadow="0"
     inkscape:pageopacity="0"
     inkscape:pagecheckerboard="1"
     inkscape:deskcolor="#d1d1d1" />
  <path
     fill-rule="evenodd"
     clip-rule="evenodd"
     d="M 30.514489,6.6585939 C 28.576896,4.879562 26.375592,3.5020916 23.910397,2.5261737 21.369545,1.5202643 18.732806,1.0173109 16,1.0173109 c -2.732715,0 -5.369544,0.5029534 -7.9104326,1.5088628 C 5.6244538,3.5020916 3.4230957,4.879562 1.4855112,6.6585939 l 2.535527,2.5355088 C 5.6072814,7.7627564 7.4029232,6.6501845 9.4079638,5.8564053 11.525365,5.0181391 13.722677,4.5990151 16,4.5990151 c 2.277324,0 4.474636,0.419124 6.592118,1.2573902 2.004996,0.7937701 3.800619,1.906342 5.386781,3.3377065 z M 25.442038,11.73109 C 24.207944,10.646404 22.818544,9.798223 21.273658,9.1866368 19.579727,8.5160312 17.821841,8.1807283 16,8.1807283 c -1.82184,0 -3.579726,0.3353029 -5.273658,1.0059085 C 9.1815378,9.798223 7.7920748,10.646404 6.5579985,11.73109 l 2.5398905,2.539945 c 0.8802221,-0.740148 1.862499,-1.324901 2.946913,-1.754167 1.270471,-0.502927 2.588841,-0.754481 3.955198,-0.754481 1.366358,0 2.684818,0.251554 3.955198,0.754481 1.084324,0.429266 2.066682,1.014019 2.946986,1.754167 z m -13.46237,5.421706 3.553873,3.553782 c 0.257541,0.257632 0.675377,0.257632 0.933009,0 l 3.553873,-3.553782 C 19.510511,16.57766 18.905166,16.132428 18.204207,15.8171 17.503338,15.501864 16.768633,15.3442 16,15.3442 c -0.768633,0 -1.503247,0.157664 -2.204206,0.4729 -0.700869,0.315328 -1.306214,0.76056 -1.816126,1.335696 z"
     fill="url(#paint0_radial_103_1572)"
     id="path1"
     style="fill:#ffffff;fill-opacity:1;stroke:#000000;stroke-width:0.90716;stroke-dasharray:none;stroke-opacity:1" />
  <defs
     id="defs2" />
  <rect
     style="fill:#ffffff;stroke:#000000;stroke-width:0.90716;stroke-linejoin:miter;stroke-dasharray:none"
     id="rect1"
     width="3.8757615"
     height="28.686785"
     x="17.418526"
     y="-12.817113"
     transform="rotate(30)" />
</svg>
